inDegrees=no
num_controls=7
num_derivatives=13
num_iterations=46
num_multipliers=7
num_parameters=0
num_slacks=7
num_states=26
objective=0.451646
objective_accelerations=0.002111
objective_balance=0.001940
objective_effort=0.004211
objective_height=0.432357
objective_ligament=0.011027
solver_duration=688.221786
status=Solve_Succeeded
success=true
DataType=double
version=3
OpenSimVersion=4.5
endheader
time	/jointset/ground_pelvis/pelvis_tilt/value	/jointset/ground_pelvis/pelvis_tx/value	/jointset/ground_pelvis/pelvis_ty/value	/jointset/hip_l/hip_flexion_l/value	/jointset/hip_l/hip_adduction_l/value	/jointset/hip_l/hip_rotation_l/value	/jointset/back/lumbar_extension/value	/jointset/patellofemoral_l/patellar_flexion_l/value	/jointset/knee_l/knee_flexion_l/value	/jointset/knee_l/knee_adduction_l/value	/jointset/knee_l/knee_rotation_l/value	/jointset/ankle_l/ankle_angle_l/value	/jointset/subtalar_l/subtalar_angle_l/value	/jointset/ground_pelvis/pelvis_tilt/speed	/jointset/ground_pelvis/pelvis_tx/speed	/jointset/ground_pelvis/pelvis_ty/speed	/jointset/hip_l/hip_flexion_l/speed	/jointset/hip_l/hip_adduction_l/speed	/jointset/hip_l/hip_rotation_l/speed	/jointset/back/lumbar_extension/speed	/jointset/patellofemoral_l/patellar_flexion_l/speed	/jointset/knee_l/knee_flexion_l/speed	/jointset/knee_l/knee_adduction_l/speed	/jointset/knee_l/knee_rotation_l/speed	/jointset/ankle_l/ankle_angle_l/speed	/jointset/subtalar_l/subtalar_angle_l/speed	/forceset/tau_hip_flexion_l	/forceset/tau_hip_adduction_l	/forceset/tau_hip_rotation_l	/forceset/tau_knee_flexion_l	/forceset/tau_ankle_angle_l	/forceset/tau_subtalar_angle_l	/forceset/tau_lumbar_extension	lambda_cid13_p0	lambda_cid13_p1	lambda_cid13_p2	lambda_cid13_p3	lambda_cid13_p4	lambda_cid13_p5	lambda_cid14_p0	/jointset/ground_pelvis/pelvis_tilt/accel	/jointset/ground_pelvis/pelvis_tx/accel	/jointset/ground_pelvis/pelvis_ty/accel	/jointset/hip_l/hip_flexion_l/accel	/jointset/hip_l/hip_adduction_l/accel	/jointset/hip_l/hip_rotation_l/accel	/jointset/back/lumbar_extension/accel	/jointset/patellofemoral_l/patellar_flexion_l/accel	/jointset/knee_l/knee_flexion_l/accel	/jointset/knee_l/knee_adduction_l/accel	/jointset/knee_l/knee_rotation_l/accel	/jointset/ankle_l/ankle_angle_l/accel	/jointset/subtalar_l/subtalar_angle_l/accel	gamma_cid13_p0	gamma_cid13_p1	gamma_cid13_p2	gamma_cid13_p3	gamma_cid13_p4	gamma_cid13_p5	gamma_cid14_p0
1.5	-0.07614934741714	0.1586131341722225	0.9072748888073339	0.1472987957812323	-0.2392613119245141	-0.2611788007675016	-0.08632069451689682	0.06804348870351337	0.06804348870351618	0.05751705902384344	-0.08961591989210224	0.1034754753157533	0.2305638708263709	-0.1381058387826905	0.008524385030049304	-0.003794497771715989	0.04843489764039943	0.02419043668150766	-0.03435148956967412	0.1490753724652339	-0.1714246762385348	-0.1714246762385358	-0.001256613088979585	0.004270461719806628	-0.08442329669504592	-0.008283143547207846	0.01828760207996098	0.06964763569171609	-0.00206343536870288	-0.03666857880177368	-0.01780011746726682	-0.05952335517900079	0.01604588542576211	-37.69289215464965	27.39629069889835	1.124674695763685	6.756678875948559	-460.7607050940252	-21.83551226940577	-21.49063553986974	0.2082467037120679	-0.1367396237352536	0.008009603930029457	0.01398350534467521	-0.005479402877380205	0.06353571200369951	-0.07880165137686394	0.1225385109290411	0.1225385109290389	0.01347127475740104	-0.0009428067524662096	-0.09593432115214764	-0.04768225149720587	-7.398410910035342e-11	1.314394096315902e-10	3.342263710729115e-09	-4.361616883159355e-10	3.251827441700641e-09	-2.382698731145116e-09	-4.467471310769025e-10
1.51	-0.0775198058390533	0.1586914949281639	0.907237362372089	0.1477837162896513	-0.2390196578007051	-0.2615191733813995	-0.08483397996273839	0.06633538651937593	0.06633538651937794	0.05750522277479061	-0.08957330004438184	0.1026264186543508	0.2304786733126204	-0.1359704630224553	0.007142555427734847	-0.003709704694886309	0.04854693128888964	0.02413893965242272	-0.0337207701319677	0.1482608813639948	-0.1701815317990598	-0.17018153179906	-0.001109207574629364	0.004251423048304275	-0.0853863884325828	-0.008757152595128366	0.01786377984314362	0.06977550130408033	-0.002139459783698584	-0.03552396262382106	-0.01856902121999376	-0.05964650664886972	0.01617235548344472	-37.93878903988631	27.40809732829957	1.219577651846723	6.932280094224958	-460.7550789936791	-21.79514676373842	-21.45763871994476	0.2184901795117892	-0.1396863006120437	0.0088775286947227	0.009472218794907868	-0.005202735328882766	0.06317892574798303	-0.08377138993987715	0.127336832165124	0.1273368321652517	0.01559005277768636	-0.002696561641144247	-0.09624958491108697	-0.04737972858130843	-1.802142036012781e-10	2.801477240924476e-10	3.525839784932091e-09	-3.551155165872421e-10	3.35552552962212e-09	-2.333174498117007e-09	-4.925546119219645e-10
1.52	-0.07886844906989811	0.1587558810536557	0.9072007165414391	0.1482696889193906	-0.2387785622236691	-0.2618531710277025	-0.08335561002968124	0.06464014266397576	0.06464014266396814	0.05749490355348868	-0.08953093301623208	0.1017677804786024	0.2303887118089621	-0.133742800568912	0.005729458940121605	-0.003618376852687645	0.04864532190513115	0.02407872732714735	-0.03307649605050621	0.1474064482450577	-0.1688530104912498	-0.1688530104912492	-0.0009532075401266403	0.004219897805121152	-0.08633959956438457	-0.009235941528722369	0.01743995760627899	0.06990336691643816	-0.00221548419872957	-0.03437934644590455	-0.01933792497273493	-0.05976965811875169	0.01629882554110321	-38.18429603690629	27.41976515471508	1.314583306861755	7.112286934609869	-460.741106698195	-21.75188745174771	-21.42450174984611	0.2267040423736229	-0.1429930007949697	0.009316557003821514	0.01125489889493093	-0.007222462115466876	0.06624664075469759	-0.08679005491651191	0.139613884596048	0.1396138845960557	0.01519017878790223	-0.003440121088626618	-0.09395820000507633	-0.04863822863188182	-2.468333192550179e-10	3.773018157393473e-10	3.701801608351863e-09	-3.015036150062563e-10	3.536914341178069e-09	-2.357869846837296e-09	-5.26817656373951e-10
1.53	-0.08019434394047086	0.1588059847224079	0.9071650177535335	0.1487565554512257	-0.238538110720077	-0.2621806623328002	-0.08188598559870927	0.0629586023141141	0.06295860231412082	0.05748618834004342	-0.08948894387334583	0.1008996627677125	0.230293941898724	-0.131420004554893	0.004286501194051891	-0.003520261481813153	0.0487246556003525	0.02400983628013667	-0.03241919650025458	0.1465118721226746	-0.1674400588366881	-0.1674400588366872	-0.0007887282411364577	0.004176075643835898	-0.08728133844148625	-0.009718746406268816	0.01702973718956326	0.07001675340880818	-0.002288279811621479	-0.03327933994670929	-0.02004882914383036	-0.05988746337976848	0.01641978550529098	-38.41138971904889	27.42942419259845	1.405868989016649	7.281381650780224	-460.7350433492641	-21.71786121366688	-21.391251030282	0.2374924907123428	-0.1456632566241726	0.01022770253800291	0.005773100993185963	-0.006983682887678909	0.06585623248996395	-0.09177626497450965	0.1443860146621799	0.1443860146622054	0.01724339198041742	-0.005130932853465567	-0.09389117322783379	-0.04820804203091174	-2.713657698836244e-10	4.196795456464172e-10	3.869673290314482e-09	-2.770406254572096e-10	3.800849546595642e-09	-2.461423501165255e-09	-5.488147371582947e-10
